<svg width="40" height="40" viewBox="0 0 40 40" fill="none" xmlns="http://www.w3.org/2000/svg">
<rect width="40" height="40" rx="20" fill="#121212"/>
<rect x="1" y="1" width="38" height="38" rx="19" stroke="#336145" stroke-opacity="0.4" stroke-width="2"/>
<rect x="5" y="5" width="30" height="30" rx="15" fill="url(#paint0_linear_2031_215)"/>
<path d="M12.583 25.321C11.553 24.227 11 23 11 21.011C11 17.511 13.457 14.374 17.03 12.823L17.923 14.201C14.588 16.005 13.936 18.346 13.676 19.822C14.213 19.544 14.916 19.447 15.605 19.511C17.409 19.678 18.831 21.159 18.831 23C18.831 23.9283 18.4623 24.8185 17.8059 25.4749C17.1495 26.1313 16.2593 26.5 15.331 26.5C14.8176 26.4956 14.3103 26.389 13.8385 26.1866C13.3667 25.9842 12.94 25.69 12.583 25.321ZM22.583 25.321C21.553 24.227 21 23 21 21.011C21 17.511 23.457 14.374 27.03 12.823L27.923 14.201C24.588 16.005 23.936 18.346 23.676 19.822C24.213 19.544 24.916 19.447 25.605 19.511C27.409 19.678 28.831 21.159 28.831 23C28.831 23.9283 28.4623 24.8185 27.8059 25.4749C27.1495 26.1313 26.2593 26.5 25.331 26.5C24.8176 26.4956 24.3103 26.389 23.8385 26.1866C23.3667 25.9842 22.94 25.69 22.583 25.321Z" fill="white"/>
<defs>
<linearGradient id="paint0_linear_2031_215" x1="25.4545" y1="-5.90909" x2="20" y2="35" gradientUnits="userSpaceOnUse">
<stop stop-color="#336145"/>
<stop offset="1" stop-color="#213D2C"/>
</linearGradient>
</defs>
</svg>
