<svg width="174" height="40" viewBox="0 0 174 40" fill="none" xmlns="http://www.w3.org/2000/svg">
<g clip-path="url(#clip0_2060_38)">
<path d="M50.203 20.782C50.2376 20.1158 50.2376 19.4482 50.203 18.782H12.254C12.246 18.948 12.239 19.115 12.235 19.282H4.285L4.281 19.532H0V20.032H4.28L4.286 20.282H12.235C12.239 20.45 12.245 20.616 12.255 20.782H23.15C23.1086 20.4503 23.0879 20.1163 23.088 19.782H39.088C39.088 20.121 39.068 20.455 39.026 20.782H50.203ZM50.124 17.782H38.837C38.7492 17.4417 38.639 17.1077 38.507 16.782H23.672C23.541 17.106 23.43 17.439 23.342 17.782H12.332C12.35 17.615 12.37 17.448 12.392 17.282H4.442L4.476 17.038H0V16.538H4.555L4.601 16.282H12.551C12.581 16.115 12.615 15.948 12.651 15.782H49.807C49.947 16.437 50.054 17.104 50.124 17.782ZM49.564 14.782H37.334C37.0456 14.422 36.7267 14.0874 36.381 13.782H25.797C25.452 14.088 25.132 14.422 24.844 14.782H12.894C12.939 14.615 12.987 14.448 13.037 14.282H5.087L5.175 14.001H0V13.5H5.342L5.42 13.281H13.37C13.43 13.113 13.494 12.947 13.56 12.781H48.897C49.155 13.431 49.378 14.1 49.564 14.782ZM48.467 11.782H13.99C14.068 11.614 14.148 11.448 14.231 11.282H6.282L6.423 11.006H0V10.506H6.694L6.821 10.282H14.771C14.868 10.114 14.968 9.947 15.07 9.782H47.387C47.785 10.424 48.147 11.092 48.467 11.782ZM12.332 21.782H50.125C50.054 22.46 49.947 23.128 49.807 23.782H38.019C38.204 23.462 38.368 23.128 38.508 22.782H23.67C23.81 23.128 23.973 23.462 24.158 23.782H12.65C12.6144 23.6158 12.5811 23.4491 12.55 23.282H4.601C4.58471 23.1941 4.56905 23.1061 4.554 23.018H0V22.518H4.475C4.46352 22.4394 4.45252 22.3607 4.442 22.282H12.392C12.3698 22.1156 12.3498 21.9489 12.332 21.782ZM12.893 24.782H49.563C49.378 25.465 49.155 26.132 48.897 26.782H34.965C35.4717 26.5007 35.9465 26.1655 36.381 25.782H25.797C26.2315 26.1655 26.7063 26.5007 27.213 26.782H13.56C13.4944 26.6162 13.431 26.4495 13.37 26.282H5.42L5.334 26.041H0V25.541H5.168C5.14072 25.4549 5.11406 25.3685 5.088 25.282H13.037C12.987 25.116 12.939 24.95 12.893 24.782ZM13.99 27.782H48.467C48.1473 28.4697 47.7867 29.1375 47.387 29.782H15.07C14.9674 29.6169 14.8674 29.4502 14.77 29.282H6.821C6.771 29.196 6.722 29.11 6.674 29.023H0V28.523H6.405L6.282 28.283H14.232C14.1489 28.1175 14.0682 27.9508 13.99 27.783V27.782ZM16.92 32.282C17.067 32.452 17.218 32.618 17.372 32.782H45.085C45.6752 32.1531 46.2221 31.4849 46.722 30.782H15.735C15.855 30.951 15.977 31.118 16.103 31.282H8.153L8.351 31.537H0V32.037H8.76C8.829 32.12 8.899 32.201 8.97 32.282H16.92ZM20.237 35.282C20.48 35.455 20.727 35.622 20.977 35.782H41.48C42.4004 35.1909 43.2683 34.5218 44.074 33.782H18.384C18.569 33.952 18.758 34.119 18.95 34.282H11C11.108 34.374 11.217 34.464 11.327 34.552H0V35.052H11.972C12.076 35.13 12.182 35.207 12.288 35.282H20.238H20.237ZM27.254 38.366C28.536 38.639 29.865 38.782 31.228 38.782C34.282 38.782 37.167 38.062 39.723 36.782H22.733C23.089 36.96 23.45 37.127 23.817 37.282H15.867C16.009 37.342 16.152 37.401 16.295 37.458H0V37.958H17.725C19.482 38.494 21.347 38.782 23.279 38.782C24.642 38.782 25.972 38.639 27.254 38.366ZM15.735 8.782H46.722C46.2221 8.07912 45.6752 7.41092 45.085 6.782H17.372C17.218 6.946 17.067 7.112 16.919 7.282H8.97L8.794 7.488H0V7.988H8.382C8.305 8.085 8.229 8.183 8.154 8.282H16.103C15.977 8.447 15.855 8.614 15.735 8.782ZM18.383 5.782H44.073C43.2676 5.04225 42.4001 4.37312 41.48 3.782H20.977C20.727 3.943 20.48 4.11 20.237 4.282H12.288C12.178 4.361 12.068 4.44 11.96 4.521H0V5.021H11.316C11.21 5.107 11.105 5.194 11.001 5.282H18.95C18.758 5.445 18.569 5.612 18.383 5.782ZM22.734 2.782H39.724C37.0869 1.46244 34.1778 0.77755 31.229 0.782C29.865 0.782 28.536 0.926 27.254 1.199C25.9473 0.921201 24.6149 0.781434 23.279 0.782C21.145 0.782 19.094 1.134 17.179 1.782H0V2.282H23.817C23.4508 2.43722 23.0896 2.60397 22.734 2.782ZM111.248 0.5C111.905 0.5 112.421 0.664 112.796 0.992C113.187 1.305 113.382 1.742 113.382 2.306C113.382 2.869 113.187 3.314 112.796 3.642C112.421 3.955 111.905 4.112 111.248 4.112C110.592 4.112 110.068 3.955 109.677 3.642C109.302 3.314 109.114 2.869 109.114 2.306C109.114 1.743 109.302 1.306 109.677 0.992C110.068 0.664 110.592 0.5 111.248 0.5ZM113.077 6.292V16.493C113.077 17.15 113.187 17.596 113.406 17.83C113.64 18.065 114.031 18.182 114.578 18.182V18.674C114.141 18.6526 113.703 18.637 113.265 18.627C112.664 18.5955 112.061 18.5799 111.459 18.58C110.85 18.58 110.232 18.596 109.607 18.627C109.138 18.6373 108.669 18.653 108.2 18.674V18.182C108.747 18.182 109.13 18.065 109.349 17.83C109.583 17.596 109.701 17.15 109.701 16.493V9.106C109.701 8.403 109.591 7.886 109.372 7.559C109.169 7.215 108.778 7.043 108.2 7.043V6.55C108.7 6.597 109.185 6.62 109.654 6.62C110.31 6.62 110.92 6.597 111.483 6.55C112.061 6.488 112.593 6.402 113.077 6.292Z" fill="white"/>
<path fill-rule="evenodd" clip-rule="evenodd" d="M119.677 8.444V6.292C119.193 6.402 118.661 6.488 118.083 6.55C117.504 6.597 116.894 6.62 116.253 6.62C115.784 6.62 115.3 6.597 114.799 6.55V7.043C115.362 7.043 115.753 7.215 115.972 7.559C116.191 7.887 116.3 8.403 116.3 9.106V20.832C116.3 21.457 116.191 21.879 115.972 22.098C115.769 22.317 115.409 22.426 114.893 22.426V22.919L116.136 22.849C116.707 22.8331 117.277 22.8251 117.848 22.825C118.645 22.825 119.396 22.833 120.099 22.848C120.818 22.88 121.381 22.903 121.788 22.918V22.426C121.131 22.426 120.615 22.301 120.24 22.051C119.865 21.817 119.677 21.332 119.677 20.597V18.247C119.883 18.419 120.125 18.561 120.404 18.674C120.904 18.894 121.459 19.003 122.069 19.003C122.898 19.003 123.64 18.854 124.297 18.557C124.965 18.2633 125.552 17.8129 126.009 17.244C126.493 16.65 126.861 15.923 127.111 15.063C127.377 14.203 127.51 13.203 127.51 12.061C127.51 10.764 127.322 9.685 126.947 8.825C126.572 7.949 126.071 7.301 125.446 6.879C124.821 6.44123 124.075 6.21136 123.312 6.222C122.405 6.222 121.608 6.456 120.92 6.925C120.379 7.29 119.965 7.796 119.677 8.445V8.444ZM119.677 9.25V17.751C119.807 17.905 119.964 18.033 120.146 18.135C120.443 18.291 120.779 18.369 121.155 18.369C121.858 18.369 122.413 18.135 122.82 17.666C123.226 17.181 123.515 16.509 123.687 15.649C123.875 14.774 123.969 13.734 123.969 12.53C123.969 11.186 123.883 10.13 123.711 9.364C123.539 8.598 123.304 8.051 123.007 7.723C122.71 7.394 122.351 7.23 121.928 7.23C121.366 7.23 120.85 7.45 120.381 7.887C120.028 8.227 119.793 8.682 119.677 9.25Z" fill="white"/>
<path d="M132.894 6.222C133.551 6.222 134.121 6.308 134.606 6.48C135.106 6.636 135.466 6.793 135.685 6.949C136.216 7.309 136.545 7.074 136.67 6.245H137.162C137.131 6.683 137.107 7.223 137.092 7.863C137.076 8.489 137.068 9.325 137.068 10.373H136.576C136.496 9.78666 136.346 9.21194 136.13 8.661C135.931 8.1263 135.601 7.65034 135.169 7.277C134.762 6.917 134.231 6.737 133.574 6.737C133.121 6.737 132.738 6.871 132.425 7.137C132.112 7.387 131.956 7.754 131.956 8.239C131.956 8.708 132.097 9.122 132.378 9.482C132.66 9.826 133.019 10.162 133.457 10.49C133.91 10.803 134.379 11.139 134.864 11.498C135.38 11.889 135.849 12.28 136.271 12.671C136.676 13.0247 137.017 13.4451 137.279 13.914C137.53 14.367 137.655 14.906 137.655 15.532C137.655 16.235 137.451 16.852 137.045 17.384C136.638 17.9 136.099 18.299 135.427 18.58C134.77 18.862 134.035 19.003 133.223 19.003C132.797 19.0078 132.371 18.9605 131.956 18.862C131.631 18.781 131.316 18.6629 131.018 18.51C130.815 18.416 130.619 18.33 130.432 18.252C130.273 18.1642 130.108 18.0861 129.939 18.018C129.783 17.971 129.642 18.025 129.517 18.182C129.408 18.338 129.322 18.557 129.259 18.838H128.767C128.798 18.338 128.822 17.728 128.837 17.009C128.853 16.29 128.861 15.336 128.861 14.149H129.353C129.447 14.993 129.619 15.743 129.869 16.399C130.119 17.041 130.455 17.549 130.877 17.924C131.315 18.284 131.862 18.464 132.519 18.464C132.785 18.464 133.043 18.409 133.293 18.299C133.543 18.189 133.746 18.009 133.903 17.759C134.075 17.509 134.161 17.189 134.161 16.799C134.161 16.11 133.934 15.539 133.48 15.086C133.043 14.633 132.48 14.14 131.792 13.609C131.292 13.202 130.815 12.804 130.362 12.413C129.942 12.0287 129.579 11.5866 129.283 11.1C128.998 10.6005 128.852 10.0333 128.861 9.458C128.861 8.755 129.048 8.161 129.423 7.676C129.806 7.18594 130.318 6.81229 130.901 6.597C131.535 6.34527 132.212 6.21795 132.894 6.222ZM162.005 6.48C161.598 6.308 161.067 6.222 160.41 6.222C159.675 6.21453 158.949 6.39196 158.3 6.738C157.659 7.066 157.151 7.621 156.775 8.403V6.293C156.291 6.402 155.759 6.488 155.181 6.55C154.618 6.597 154.008 6.62 153.352 6.62C152.883 6.62 152.398 6.597 151.898 6.55V7.043C152.476 7.043 152.867 7.215 153.07 7.559C153.289 7.887 153.398 8.403 153.398 9.106V16.493C153.398 17.15 153.281 17.596 153.047 17.83C152.828 18.065 152.445 18.182 151.898 18.182V18.674C152.367 18.653 152.836 18.6373 153.305 18.627C153.914 18.5961 154.524 18.5805 155.134 18.58C155.681 18.58 156.213 18.596 156.728 18.627C157.26 18.643 157.651 18.659 157.901 18.674V18.182C157.495 18.182 157.205 18.065 157.033 17.83C156.861 17.596 156.775 17.15 156.775 16.493V9.974C156.775 9.458 156.877 8.997 157.08 8.59C157.299 8.168 157.58 7.84 157.924 7.606C158.254 7.37581 158.648 7.25291 159.05 7.254C159.41 7.254 159.675 7.34 159.847 7.512C160.035 7.668 160.16 7.895 160.223 8.192C160.285 8.473 160.316 8.809 160.316 9.2V16.493C160.316 17.15 160.23 17.596 160.058 17.83C159.902 18.065 159.613 18.182 159.191 18.182V18.674C159.472 18.659 159.886 18.643 160.434 18.627C161.543 18.5637 162.655 18.5637 163.764 18.627C164.342 18.643 164.772 18.659 165.053 18.674V18.182C164.553 18.182 164.201 18.065 163.998 17.83C163.795 17.596 163.693 17.15 163.693 16.493V10.078L163.692 10.005L163.688 9.768C163.724 9.37601 163.829 8.99345 163.998 8.638C164.217 8.215 164.498 7.879 164.842 7.629C165.186 7.379 165.562 7.254 165.968 7.254C166.374 7.254 166.672 7.34 166.859 7.512C167.062 7.668 167.195 7.895 167.258 8.192C167.336 8.473 167.375 8.809 167.375 9.2V16.493C167.375 17.15 167.289 17.596 167.117 17.83C166.961 18.065 166.672 18.182 166.249 18.182V18.674C166.531 18.659 166.945 18.643 167.492 18.627C168.047 18.5955 168.602 18.5798 169.157 18.58C169.736 18.58 170.322 18.596 170.916 18.627C171.51 18.643 171.956 18.659 172.253 18.674V18.182C171.706 18.182 171.315 18.065 171.08 17.83C170.861 17.596 170.752 17.15 170.752 16.493V10.185C170.752 9.403 170.697 8.778 170.588 8.309C170.478 7.824 170.299 7.434 170.048 7.137C169.798 6.855 169.47 6.637 169.063 6.48C168.657 6.308 168.125 6.222 167.469 6.222C166.672 6.222 165.921 6.386 165.218 6.714C164.544 7.036 163.998 7.65 163.579 8.556C163.565 8.47322 163.548 8.39085 163.529 8.309C163.42 7.824 163.24 7.434 162.99 7.137C162.74 6.855 162.411 6.637 162.005 6.48ZM150.058 16.118V6.292C149.573 6.402 149.042 6.488 148.463 6.55C147.901 6.597 147.291 6.62 146.634 6.62C146.165 6.62 145.681 6.597 145.18 6.55V7.043C145.759 7.043 146.15 7.215 146.353 7.559C146.572 7.887 146.681 8.403 146.681 9.106V15.25C146.681 15.766 146.572 16.235 146.353 16.657C146.167 17.0434 145.884 17.3749 145.532 17.619C145.204 17.8537 144.809 17.9771 144.406 17.971C144.016 17.971 143.719 17.892 143.515 17.736C143.304 17.5516 143.157 17.3057 143.093 17.033C143.027 16.6931 142.995 16.3473 142.999 16.001V6.292C142.515 6.402 141.983 6.488 141.405 6.55C140.842 6.597 140.232 6.62 139.576 6.62C139.107 6.62 138.622 6.597 138.122 6.55V7.043C138.7 7.043 139.091 7.215 139.294 7.559C139.513 7.887 139.622 8.403 139.622 9.106V15.039C139.622 15.805 139.677 16.431 139.787 16.915C139.896 17.4 140.084 17.791 140.349 18.088C140.584 18.354 140.904 18.573 141.311 18.745C141.717 18.916 142.249 19.003 142.906 19.003C143.719 19.003 144.453 18.838 145.11 18.51C145.782 18.166 146.306 17.603 146.681 16.822V18.932C147.205 18.803 147.738 18.7168 148.276 18.674C148.839 18.627 149.448 18.604 150.105 18.604C150.59 18.604 151.074 18.627 151.559 18.674V18.182C150.996 18.182 150.605 18.018 150.386 17.689C150.167 17.345 150.058 16.822 150.058 16.119V16.118Z" fill="white"/>
<path fill-rule="evenodd" clip-rule="evenodd" d="M104.696 6.855C103.836 6.433 102.835 6.222 101.694 6.222C100.584 6.222 99.591 6.433 98.716 6.855C97.856 7.277 97.176 7.957 96.676 8.895C96.191 9.833 95.948 11.076 95.948 12.624C95.948 14.172 96.191 15.414 96.675 16.353C97.175 17.275 97.855 17.947 98.715 18.369C99.591 18.791 100.584 19.003 101.694 19.003C102.835 19.003 103.836 18.791 104.696 18.369C105.555 17.947 106.228 17.275 106.712 16.353C107.197 15.415 107.439 14.172 107.439 12.624C107.439 11.076 107.197 9.834 106.712 8.895C106.228 7.957 105.555 7.277 104.696 6.855ZM100.123 8.098C100.545 7.16 101.069 6.691 101.694 6.691C102.335 6.691 102.859 7.16 103.265 8.098C103.687 9.02 103.898 10.529 103.898 12.624C103.898 14.719 103.687 16.228 103.265 17.15C102.859 18.072 102.335 18.534 101.694 18.534C101.069 18.534 100.545 18.072 100.123 17.15C99.701 16.228 99.49 14.719 99.49 12.624C99.49 10.529 99.7 9.02 100.123 8.098ZM88.301 23.083C87.331 23.083 86.464 22.997 85.698 22.825C84.948 22.669 84.354 22.419 83.916 22.075C83.494 21.746 83.283 21.34 83.283 20.855C83.283 20.37 83.501 19.933 83.939 19.542C84.377 19.167 85.026 18.87 85.886 18.651L86.096 19.026C85.8275 19.2276 85.6041 19.4831 85.44 19.776C85.315 20.058 85.252 20.347 85.252 20.644C85.252 21.301 85.549 21.801 86.144 22.144C86.754 22.504 87.574 22.684 88.606 22.684C89.309 22.684 89.935 22.59 90.482 22.403C91.045 22.215 91.482 21.933 91.795 21.559C92.124 21.183 92.288 20.722 92.288 20.175C92.288 19.706 92.116 19.307 91.772 18.979C91.428 18.666 90.74 18.51 89.708 18.51H88.254C87.614 18.51 87.05 18.44 86.566 18.299C86.096 18.159 85.729 17.939 85.463 17.642C85.198 17.33 85.065 16.939 85.065 16.47C85.065 15.813 85.323 15.235 85.839 14.734C86.243 14.342 86.801 13.969 87.513 13.616C87.0449 13.5578 86.5851 13.4454 86.143 13.281C85.44 13.015 84.885 12.608 84.479 12.061C84.072 11.514 83.869 10.811 83.869 9.951C83.869 9.091 84.072 8.387 84.479 7.84C84.885 7.277 85.44 6.87 86.144 6.62C86.847 6.355 87.644 6.222 88.535 6.222C89.427 6.222 90.224 6.355 90.927 6.621C91.391 6.785 91.789 7.018 92.124 7.318C92.323 7.031 92.565 6.775 92.85 6.55C93.382 6.144 93.953 5.94 94.562 5.94C95.062 5.94 95.438 6.081 95.688 6.363C95.954 6.628 96.087 6.98 96.087 7.418C96.087 7.887 95.961 8.238 95.711 8.473C95.461 8.693 95.18 8.802 94.867 8.802C94.5918 8.79836 94.3265 8.6986 94.117 8.52C93.897 8.332 93.773 8.051 93.742 7.676C93.715 7.34 93.809 6.924 94.024 6.426C93.568 6.62 93.216 6.841 92.968 7.09C92.781 7.27026 92.6177 7.47356 92.482 7.695C92.52 7.742 92.557 7.791 92.592 7.84C92.999 8.387 93.202 9.09 93.202 9.95C93.202 10.81 92.999 11.514 92.592 12.061C92.186 12.608 91.631 13.015 90.927 13.281C90.224 13.546 89.427 13.679 88.535 13.679C88.4016 13.6791 88.2682 13.6761 88.135 13.67C87.924 13.813 87.721 13.965 87.527 14.125C87.4065 14.2193 87.3098 14.3405 87.2447 14.4789C87.1796 14.6173 87.1478 14.7691 87.152 14.922C87.152 15.422 87.465 15.672 88.09 15.672H90.646C91.506 15.672 92.272 15.774 92.944 15.977C93.632 16.181 94.171 16.517 94.562 16.986C94.969 17.439 95.172 18.033 95.172 18.768C95.172 19.534 94.922 20.245 94.422 20.902C93.937 21.559 93.187 22.082 92.17 22.473C91.154 22.88 89.864 23.083 88.301 23.083ZM88.535 13.257C88.958 13.257 89.285 13.023 89.52 12.554C89.755 12.069 89.872 11.201 89.872 9.951C89.872 8.7 89.755 7.84 89.52 7.371C89.286 6.886 88.958 6.644 88.536 6.644C88.129 6.644 87.801 6.886 87.551 7.371C87.316 7.84 87.199 8.7 87.199 9.951C87.199 11.201 87.316 12.069 87.551 12.554C87.801 13.023 88.129 13.257 88.535 13.257ZM80.247 6.855C79.387 6.433 78.387 6.222 77.246 6.222C76.136 6.222 75.143 6.433 74.268 6.855C73.408 7.277 72.728 7.957 72.228 8.895C71.743 9.833 71.5 11.076 71.5 12.624C71.5 14.172 71.743 15.414 72.227 16.353C72.727 17.275 73.407 17.947 74.267 18.369C75.143 18.791 76.136 19.003 77.246 19.003C78.387 19.003 79.388 18.791 80.247 18.369C81.107 17.947 81.779 17.275 82.264 16.353C82.749 15.415 82.991 14.172 82.991 12.624C82.991 11.076 82.749 9.834 82.264 8.895C81.78 7.957 81.107 7.277 80.247 6.855ZM75.674 8.098C76.097 7.16 76.62 6.691 77.246 6.691C77.886 6.691 78.41 7.16 78.816 8.098C79.239 9.02 79.45 10.529 79.45 12.624C79.45 14.719 79.239 16.228 78.817 17.15C78.41 18.072 77.887 18.534 77.246 18.534C76.62 18.534 76.096 18.072 75.674 17.15C75.252 16.228 75.041 14.719 75.041 12.624C75.041 10.529 75.252 9.02 75.674 8.098Z" fill="white"/>
<path d="M65.1841 2.07101V2.54101C64.6531 2.55601 64.2461 2.61801 63.9651 2.72801C63.8365 2.77156 63.7202 2.84547 63.6262 2.94347C63.5322 3.04147 63.4632 3.16069 63.4251 3.29101C63.3321 3.55601 63.2851 3.97901 63.2851 4.55701V16.47C63.2851 16.954 63.3161 17.314 63.3791 17.549C63.4571 17.783 63.5981 17.939 63.8011 18.018C64.0201 18.096 64.3411 18.135 64.7621 18.135H65.9121C66.4421 18.135 66.9431 18.01 67.4121 17.76C67.8821 17.51 68.3031 17.158 68.6781 16.704C69.0736 16.1998 69.3902 15.6384 69.6171 15.039C69.8671 14.399 70.0541 13.687 70.1791 12.905H70.7191C70.6721 13.437 70.6491 14.125 70.6491 14.969C70.6491 15.329 70.6561 15.852 70.6721 16.54C70.6881 17.228 70.7341 17.94 70.8121 18.674C69.9138 18.6409 69.015 18.6252 68.1161 18.627C67.1161 18.612 66.2241 18.604 65.4421 18.604H63.9421C63.3321 18.604 62.6751 18.612 61.9721 18.627C61.2681 18.627 60.5571 18.635 59.8381 18.651C59.1181 18.651 58.4381 18.659 57.7981 18.674V18.205C58.2981 18.174 58.6731 18.111 58.9231 18.018C59.1731 17.924 59.3371 17.736 59.4161 17.455C59.5091 17.173 59.5561 16.751 59.5561 16.188V4.55701C59.5561 3.97801 59.5091 3.55701 59.4161 3.29101C59.3853 3.16093 59.3217 3.04089 59.2314 2.94234C59.1411 2.84379 59.027 2.77 58.9001 2.72801C58.6501 2.61801 58.2821 2.55601 57.7981 2.54001V2.07101C59.0326 2.11675 60.2678 2.14009 61.5031 2.14101C62.1911 2.14101 62.8631 2.13401 63.5191 2.11801C64.1921 2.10201 64.7471 2.08701 65.1841 2.07101Z" fill="white"/>
<path fill-rule="evenodd" clip-rule="evenodd" d="M169.871 38.053C169.838 37.885 169.86 37.666 169.939 37.396L173.242 25.429C172.713 25.6459 172.166 25.8149 171.607 25.934C171.034 26.047 170.377 26.108 169.635 26.12L169.517 26.474C170.068 26.474 170.411 26.564 170.546 26.744C170.68 26.924 170.697 27.204 170.596 27.586L169.814 30.535C169.765 30.3927 169.68 30.2654 169.568 30.165C169.377 29.985 169.113 29.895 168.776 29.895C168.102 29.895 167.478 30.047 166.905 30.35C166.329 30.6649 165.81 31.0754 165.371 31.564C164.91 32.0591 164.519 32.6149 164.208 33.216C163.902 33.8009 163.659 34.4167 163.483 35.053C163.323 35.6011 163.238 36.1682 163.23 36.739C163.23 37.278 163.315 37.722 163.483 38.07C163.652 38.407 163.882 38.66 164.174 38.828C164.466 38.986 164.792 39.064 165.152 39.064C165.702 39.064 166.197 38.902 166.635 38.576C167.073 38.239 167.483 37.722 167.866 37.025C168.026 36.741 168.187 36.422 168.347 36.068L168.236 36.486C168.134 36.8153 168.067 37.154 168.034 37.497C168.012 37.789 168.034 38.037 168.102 38.239C168.236 38.789 168.652 39.065 169.349 39.065C169.607 39.065 169.871 39.014 170.141 38.913C170.411 38.812 170.663 38.638 170.899 38.39C171.147 38.143 171.343 37.79 171.489 37.328L171.894 36.098H171.574L171.304 36.856C171.102 37.43 170.911 37.817 170.731 38.019C170.562 38.211 170.388 38.306 170.208 38.306C170.017 38.306 169.905 38.222 169.871 38.053ZM168.972 33.713C168.845 34.124 168.707 34.515 168.557 34.884C168.276 35.604 167.978 36.222 167.663 36.739C167.36 37.244 167.062 37.637 166.77 37.919C166.478 38.188 166.219 38.323 165.995 38.323C165.781 38.323 165.624 38.222 165.523 38.02C165.433 37.806 165.388 37.486 165.388 37.059C165.388 36.452 165.455 35.834 165.59 35.205C165.725 34.565 165.91 33.952 166.146 33.368C166.363 32.8199 166.634 32.2947 166.955 31.8C167.259 31.328 167.579 30.957 167.916 30.687C168.264 30.417 168.607 30.283 168.944 30.283C169.169 30.283 169.349 30.362 169.484 30.519C169.578 30.621 169.65 30.769 169.7 30.965L168.972 33.713Z" fill="white"/>
<path d="M158.655 38.828H156.582L158.604 31.564C158.706 31.227 158.739 30.991 158.706 30.856C158.672 30.721 158.571 30.654 158.402 30.654C158.189 30.654 157.992 30.761 157.812 30.974C157.632 31.187 157.447 31.564 157.256 32.104L156.969 32.895H156.649L157.087 31.631C157.245 31.181 157.441 30.834 157.677 30.586C157.913 30.328 158.172 30.148 158.453 30.047C158.734 29.946 159.02 29.895 159.312 29.895C159.672 29.895 159.936 29.968 160.104 30.115C160.284 30.261 160.397 30.452 160.442 30.688C160.499 30.9423 160.51 31.2047 160.475 31.463C160.453 31.733 160.408 31.997 160.34 32.255L160.069 33.312L160.138 33.132C160.453 32.334 160.756 31.699 161.048 31.227C161.352 30.744 161.672 30.401 162.009 30.199C162.339 29.9983 162.719 29.8931 163.105 29.895C163.509 29.895 163.818 30.013 164.032 30.249C164.257 30.485 164.369 30.777 164.369 31.126C164.369 31.406 164.301 31.671 164.167 31.918C164.036 32.1498 163.851 32.3464 163.627 32.491C163.414 32.626 163.167 32.693 162.886 32.693C162.605 32.693 162.38 32.62 162.211 32.474C162.054 32.328 161.975 32.114 161.975 31.834C161.975 31.586 162.032 31.362 162.144 31.159C162.252 30.9613 162.402 30.7892 162.582 30.654C162.762 30.508 162.959 30.407 163.172 30.35C163.148 30.3268 163.12 30.3097 163.088 30.3C163.05 30.2881 163.01 30.2823 162.97 30.283C162.723 30.283 162.47 30.373 162.211 30.553C161.953 30.721 161.683 30.997 161.402 31.379C161.121 31.761 160.835 32.266 160.543 32.895C160.213 33.6388 159.921 34.3984 159.666 35.171C159.539 35.545 159.411 35.947 159.283 36.378L158.655 38.828Z" fill="white"/>
<path fill-rule="evenodd" clip-rule="evenodd" d="M152.357 36.224L152.286 36.486C152.179 36.8666 152.106 37.2557 152.067 37.649C152.033 38.009 152.089 38.312 152.235 38.559C152.46 38.896 152.842 39.065 153.381 39.065C153.64 39.065 153.898 39.014 154.157 38.913C154.426 38.812 154.679 38.638 154.915 38.39C155.151 38.132 155.348 37.772 155.505 37.312L155.927 36.082H155.606L155.353 36.84C155.151 37.424 154.955 37.812 154.764 38.003C154.573 38.193 154.387 38.289 154.207 38.289C154.061 38.289 153.966 38.244 153.921 38.154C153.886 38.0395 153.874 37.9191 153.887 37.8C153.909 37.6571 153.943 37.5163 153.988 37.379L156.163 29.895C155.824 29.9759 155.481 30.0324 155.134 30.064C154.786 30.098 154.41 30.12 154.005 30.131L153.761 31.033C153.751 30.804 153.684 30.5811 153.567 30.384C153.479 30.2304 153.351 30.1037 153.196 30.0175C153.042 29.9313 152.867 29.889 152.69 29.895C152.196 29.895 151.702 30.047 151.207 30.35C150.681 30.6806 150.209 31.09 149.808 31.564C149.354 32.0809 148.959 32.6459 148.628 33.249C148.296 33.8538 148.031 34.4925 147.836 35.154C147.652 35.7492 147.556 36.3681 147.55 36.991C147.55 37.621 147.696 38.126 147.988 38.508C148.28 38.879 148.729 39.064 149.336 39.064C149.763 39.064 150.173 38.941 150.567 38.694C150.971 38.446 151.353 38.036 151.713 37.464C151.936 37.119 152.15 36.706 152.357 36.224ZM150.904 37.935C150.645 38.171 150.415 38.289 150.213 38.289C150.044 38.289 149.915 38.205 149.825 38.036C149.746 37.856 149.707 37.559 149.707 37.143C149.707 36.547 149.774 35.935 149.909 35.306C150.044 34.676 150.224 34.07 150.449 33.486C150.685 32.901 150.943 32.379 151.224 31.918C151.505 31.458 151.786 31.092 152.067 30.822C152.359 30.552 152.634 30.418 152.893 30.418C153.162 30.418 153.353 30.553 153.466 30.822C153.578 31.066 153.607 31.393 153.553 31.802L153.055 33.644L153.112 33.351C152.932 34.07 152.718 34.733 152.471 35.34C152.256 35.8827 151.997 36.4068 151.696 36.907C151.426 37.345 151.162 37.688 150.904 37.935ZM145.284 37.396C145.205 37.666 145.183 37.885 145.217 38.053C145.25 38.222 145.363 38.306 145.554 38.306C145.734 38.306 145.908 38.211 146.076 38.02C146.256 37.817 146.447 37.43 146.649 36.856L146.919 36.098H147.239L146.835 37.328C146.689 37.789 146.492 38.143 146.245 38.39C146.035 38.6197 145.775 38.7986 145.486 38.913C145.233 39.0111 144.965 39.0626 144.694 39.065C143.998 39.065 143.582 38.789 143.447 38.239C143.376 37.9985 143.353 37.7463 143.38 37.497C143.402 37.205 143.469 36.867 143.582 36.486L143.693 36.068C143.532 36.422 143.371 36.741 143.211 37.025C142.829 37.722 142.419 38.239 141.981 38.575C141.554 38.8976 141.032 39.0698 140.497 39.065C140.138 39.065 139.812 38.985 139.52 38.829C139.219 38.6509 138.978 38.3865 138.829 38.07C138.66 37.722 138.576 37.278 138.576 36.739C138.576 36.222 138.66 35.659 138.829 35.053C138.997 34.435 139.239 33.823 139.553 33.216C139.864 32.6151 140.255 32.0594 140.716 31.564C141.177 31.058 141.688 30.654 142.25 30.35C142.826 30.0459 143.469 29.8895 144.121 29.895C144.458 29.895 144.722 29.985 144.913 30.165C145.023 30.262 145.106 30.385 145.16 30.535L145.941 27.586C146.043 27.204 146.026 26.923 145.891 26.743C145.756 26.563 145.413 26.473 144.863 26.473L144.981 26.12C145.642 26.1162 146.302 26.054 146.953 25.934C147.512 25.8149 148.059 25.6459 148.588 25.429L145.284 37.396ZM143.902 34.884C144.052 34.514 144.191 34.124 144.317 33.713L145.046 30.965C145.011 30.801 144.936 30.6479 144.829 30.519C144.763 30.4415 144.68 30.3801 144.586 30.3392C144.493 30.2983 144.392 30.2791 144.29 30.283C143.953 30.283 143.61 30.418 143.262 30.687C142.924 30.957 142.604 31.328 142.301 31.8C141.98 32.2942 141.709 32.8191 141.492 33.367C141.252 33.962 141.066 34.5771 140.936 35.205C140.803 35.8141 140.735 36.4356 140.733 37.059C140.733 37.486 140.778 37.806 140.868 38.019C140.969 38.222 141.127 38.323 141.34 38.323C141.565 38.323 141.823 38.188 142.115 37.918C142.408 37.638 142.705 37.244 143.009 36.738C143.359 36.1467 143.658 35.5265 143.902 34.884Z" fill="white"/>
<path d="M129.294 38.828H131.367L131.562 38.066L131.552 38.121C131.766 37.334 132.007 36.576 132.277 35.845C132.539 35.1474 132.831 34.4614 133.153 33.789C133.457 33.159 133.76 32.609 134.064 32.137C134.367 31.665 134.659 31.3 134.94 31.041C135.221 30.771 135.479 30.637 135.715 30.637C135.906 30.637 136.024 30.704 136.069 30.839C136.116 30.9922 136.121 31.1549 136.086 31.311C136.052 31.4936 136.007 31.674 135.951 31.851L134.418 36.486C134.26 36.958 134.17 37.362 134.148 37.699C134.125 38.036 134.187 38.312 134.333 38.525C134.446 38.694 134.603 38.823 134.805 38.913C135.019 39.013 135.272 39.065 135.564 39.065C135.833 39.065 136.103 39.014 136.373 38.913C136.654 38.823 136.912 38.654 137.148 38.407C137.395 38.16 137.598 37.8 137.755 37.328L138.176 36.098H137.856L137.586 36.856C137.373 37.441 137.171 37.828 136.98 38.019C136.8 38.211 136.626 38.306 136.457 38.306C136.277 38.306 136.165 38.233 136.12 38.086C136.075 37.93 136.103 37.699 136.204 37.396L137.856 32.44C138.002 32.002 138.075 31.592 138.075 31.21C138.086 30.817 137.98 30.502 137.755 30.266C137.541 30.019 137.159 29.896 136.609 29.896C136.193 29.896 135.794 29.986 135.412 30.165C135.03 30.345 134.659 30.659 134.3 31.109C133.94 31.547 133.569 32.143 133.187 32.895C132.933 33.4022 132.701 33.9197 132.49 34.446L133.052 32.255C133.12 31.985 133.17 31.715 133.204 31.446C133.238 31.166 133.226 30.912 133.17 30.687C133.116 30.4547 132.978 30.2505 132.783 30.114C132.592 29.968 132.311 29.895 131.94 29.895C131.49 29.895 131.08 30.019 130.709 30.266C130.339 30.513 130.035 30.968 129.799 31.631L129.361 32.895H129.681L129.968 32.103C130.17 31.553 130.355 31.176 130.524 30.974C130.704 30.761 130.9 30.654 131.114 30.654C131.271 30.654 131.367 30.699 131.401 30.789C131.445 30.879 131.457 30.991 131.434 31.126C131.409 31.2738 131.375 31.4201 131.333 31.564L129.294 38.828Z" fill="white"/>
<path fill-rule="evenodd" clip-rule="evenodd" d="M124.998 36.486L125.069 36.224C124.889 36.6544 124.674 37.0691 124.425 37.464C124.065 38.036 123.683 38.447 123.278 38.694C122.885 38.941 122.475 39.064 122.048 39.064C121.441 39.064 120.992 38.879 120.7 38.508C120.407 38.126 120.261 37.621 120.261 36.991C120.261 36.407 120.357 35.795 120.548 35.154C120.743 34.4924 121.008 33.8538 121.34 33.249C121.67 32.6457 122.066 32.0806 122.52 31.564C122.921 31.09 123.393 30.6806 123.919 30.35C124.413 30.047 124.908 29.895 125.402 29.895C125.784 29.895 126.076 30.058 126.279 30.385C126.387 30.552 126.452 30.768 126.473 31.033L126.717 30.131C127.121 30.12 127.498 30.098 127.846 30.064C128.206 30.03 128.548 29.974 128.874 29.895L126.7 37.38C126.654 37.5171 126.62 37.658 126.599 37.801C126.586 37.9201 126.598 38.0405 126.633 38.155C126.678 38.245 126.773 38.29 126.919 38.29C127.099 38.29 127.284 38.195 127.475 38.004C127.666 37.813 127.863 37.424 128.065 36.841L128.318 36.082H128.638L128.217 37.312C128.06 37.773 127.863 38.132 127.627 38.392C127.417 38.6211 127.158 38.7996 126.869 38.914C126.622 39.0129 126.359 39.0645 126.093 39.066C125.554 39.066 125.172 38.897 124.947 38.56C124.801 38.313 124.745 38.01 124.779 37.65C124.818 37.2567 124.892 36.8666 124.998 36.486ZM122.924 38.289C123.127 38.289 123.357 38.171 123.616 37.935C123.874 37.688 124.138 37.345 124.408 36.907C124.677 36.469 124.936 35.947 125.183 35.34C125.43 34.733 125.644 34.07 125.824 33.35L125.767 33.644L126.265 31.803C126.318 31.393 126.289 31.066 126.178 30.823C126.065 30.553 125.874 30.418 125.604 30.418C125.346 30.418 125.071 30.553 124.779 30.822C124.498 31.092 124.217 31.457 123.936 31.918C123.655 32.378 123.396 32.901 123.16 33.485C122.934 34.0768 122.753 34.6853 122.621 35.305C122.489 35.9088 122.421 36.5249 122.419 37.143C122.419 37.559 122.458 37.857 122.537 38.036C122.627 38.205 122.756 38.289 122.924 38.289Z" fill="white"/>
<path d="M121.43 30.468L121.481 30.131H119.473L120.267 27.367C119.935 27.4488 119.597 27.5053 119.256 27.536C118.908 27.569 118.531 27.592 118.127 27.603L117.402 30.131H115.868L115.784 30.468H117.306L115.581 36.486C115.435 36.98 115.385 37.424 115.43 37.817C115.486 38.199 115.643 38.503 115.902 38.727C116.171 38.952 116.559 39.065 117.065 39.065C117.638 39.065 118.132 38.913 118.548 38.609C118.964 38.306 119.29 37.806 119.526 37.109L119.863 36.098H119.542L119.29 36.789C119.087 37.351 118.863 37.744 118.615 37.969C118.379 38.194 118.143 38.306 117.907 38.306C117.814 38.3091 117.722 38.2908 117.637 38.2527C117.553 38.2146 117.478 38.1575 117.419 38.086C117.306 37.941 117.295 37.711 117.385 37.396L119.376 30.468H121.43ZM115.848 26.777C115.736 27.069 115.584 27.497 115.393 28.058C115.213 28.608 115.034 29.328 114.854 30.215H114.517C114.55 30.058 114.573 29.895 114.584 29.727C114.606 29.5763 114.617 29.4243 114.618 29.272C114.618 28.833 114.528 28.452 114.348 28.126C114.175 27.7841 113.898 27.5063 113.556 27.333C113.208 27.131 112.758 27.03 112.208 27.03C111.612 27.03 111.106 27.187 110.691 27.502C110.275 27.805 110.067 28.294 110.067 28.968C110.067 29.384 110.162 29.778 110.353 30.148C110.556 30.508 110.809 30.862 111.112 31.21C111.427 31.547 111.758 31.89 112.106 32.238C112.455 32.575 112.781 32.924 113.084 33.283C113.387 33.643 113.635 34.025 113.826 34.429C114.028 34.823 114.129 35.255 114.129 35.727C114.129 36.323 113.983 36.834 113.691 37.261C113.406 37.6805 113.032 38.0316 112.595 38.289C112.137 38.5508 111.643 38.7439 111.129 38.862C110.634 38.9942 110.124 39.0624 109.612 39.065C109.106 39.065 108.685 39.025 108.348 38.947C108.06 38.8927 107.782 38.796 107.522 38.66C107.301 38.539 107.082 38.4157 106.864 38.29C106.765 38.2067 106.65 38.1436 106.527 38.104C106.448 38.0645 106.363 38.0414 106.275 38.036C106.128 38.036 106.005 38.109 105.904 38.256C105.771 38.4755 105.659 38.7064 105.567 38.946H105.229C105.507 38.2606 105.739 37.5569 105.921 36.84C106.055 36.323 106.207 35.677 106.376 34.901H106.713C106.666 35.1242 106.627 35.349 106.595 35.575C106.561 35.8 106.55 36.025 106.561 36.25C106.595 37.036 106.836 37.643 107.286 38.07C107.747 38.497 108.421 38.71 109.308 38.71C110.061 38.71 110.629 38.553 111.011 38.239C111.393 37.913 111.584 37.441 111.584 36.823C111.584 36.351 111.494 35.923 111.314 35.542C111.144 35.1457 110.917 34.7764 110.64 34.446C110.354 34.1041 110.056 33.7725 109.747 33.452C109.437 33.1314 109.139 32.7995 108.853 32.457C108.577 32.1167 108.345 31.7431 108.162 31.345C107.978 30.9194 107.886 30.4596 107.893 29.996C107.893 29.435 108.011 28.946 108.247 28.53C108.485 28.1242 108.806 27.7738 109.19 27.502C109.584 27.221 110.023 27.0099 110.488 26.878C110.941 26.7351 111.412 26.6612 111.887 26.659C112.494 26.659 112.994 26.732 113.387 26.879C113.781 27.024 114.118 27.199 114.399 27.401L114.719 27.603C114.82 27.648 114.899 27.67 114.955 27.67C115.112 27.67 115.298 27.373 115.511 26.777H115.848Z" fill="white"/>
<path fill-rule="evenodd" clip-rule="evenodd" d="M99.578 38.053C99.544 37.885 99.567 37.666 99.646 37.396L102.949 25.429C102.42 25.6459 101.873 25.8149 101.314 25.934C100.741 26.047 100.084 26.108 99.342 26.12L99.224 26.474C99.774 26.474 100.118 26.564 100.252 26.744C100.387 26.924 100.404 27.204 100.303 27.586L99.521 30.535C99.4719 30.3927 99.3872 30.2654 99.275 30.165C99.084 29.985 98.82 29.895 98.483 29.895C97.808 29.895 97.185 30.047 96.612 30.35C96.0356 30.6649 95.5169 31.0754 95.078 31.564C94.6169 32.0591 94.2256 32.6149 93.915 33.216C93.6089 33.8009 93.3659 34.4167 93.19 35.053C93.03 35.601 92.9449 36.1682 92.937 36.739C92.937 37.278 93.022 37.722 93.19 38.07C93.359 38.407 93.589 38.66 93.881 38.828C94.173 38.986 94.499 39.064 94.859 39.064C95.409 39.064 95.904 38.902 96.342 38.576C96.78 38.239 97.19 37.722 97.572 37.025C97.732 36.741 97.893 36.422 98.054 36.068L97.944 36.486C97.8418 36.8151 97.7737 37.1539 97.741 37.497C97.7142 37.7463 97.7369 37.9985 97.808 38.239C97.943 38.789 98.358 39.065 99.056 39.065C99.314 39.065 99.578 39.014 99.848 38.913C100.118 38.812 100.37 38.638 100.606 38.39C100.854 38.143 101.05 37.79 101.196 37.328L101.601 36.098H101.281L101.011 36.856C100.809 37.43 100.618 37.817 100.438 38.019C100.269 38.211 100.095 38.306 99.915 38.306C99.725 38.306 99.612 38.222 99.578 38.053ZM98.678 33.713C98.552 34.124 98.414 34.515 98.263 34.884C97.983 35.604 97.685 36.222 97.37 36.739C97.067 37.244 96.769 37.637 96.477 37.919C96.185 38.188 95.927 38.323 95.701 38.323C95.488 38.323 95.331 38.222 95.23 38.02C95.14 37.806 95.095 37.486 95.095 37.059C95.095 36.452 95.162 35.834 95.297 35.205C95.432 34.565 95.617 33.952 95.853 33.368C96.0705 32.8198 96.3418 32.2946 96.663 31.8C96.966 31.328 97.286 30.957 97.623 30.687C97.971 30.417 98.314 30.283 98.651 30.283C98.876 30.283 99.056 30.362 99.191 30.519C99.285 30.621 99.357 30.769 99.407 30.965L98.678 33.713Z" fill="white"/>
<path d="M85.728 38.828H83.655L85.695 31.564C85.74 31.407 85.773 31.261 85.795 31.126C85.8201 31.013 85.8085 30.895 85.762 30.789C85.728 30.699 85.632 30.654 85.475 30.654C85.262 30.654 85.065 30.761 84.885 30.974C84.717 31.176 84.531 31.553 84.329 32.104L84.043 32.895H83.723L84.161 31.631C84.397 30.968 84.701 30.513 85.071 30.266C85.441 30.019 85.851 29.896 86.301 29.896C86.672 29.896 86.953 29.968 87.144 30.114C87.3399 30.2503 87.4782 30.4545 87.532 30.687C87.588 30.912 87.599 31.165 87.566 31.446C87.5317 31.7185 87.4809 31.9886 87.414 32.255L86.852 34.447C87.09 33.858 87.322 33.342 87.549 32.895C87.931 32.143 88.301 31.547 88.661 31.109C89.021 30.659 89.391 30.345 89.773 30.165C90.156 29.985 90.554 29.895 90.97 29.895C91.52 29.895 91.903 30.019 92.116 30.266C92.341 30.502 92.448 30.816 92.436 31.21C92.436 31.592 92.364 32.002 92.217 32.44L90.566 37.396C90.464 37.699 90.436 37.93 90.481 38.086C90.526 38.233 90.639 38.306 90.819 38.306C90.987 38.306 91.161 38.211 91.341 38.02C91.532 37.828 91.734 37.44 91.948 36.856L92.218 36.098H92.538L92.116 37.328C91.959 37.8 91.756 38.16 91.51 38.408C91.2982 38.6392 91.0312 38.813 90.734 38.913C90.4758 39.0121 90.2017 39.0636 89.925 39.065C89.633 39.065 89.38 39.014 89.167 38.913C88.964 38.823 88.807 38.693 88.695 38.525C88.549 38.312 88.487 38.036 88.509 37.699C88.532 37.362 88.622 36.958 88.779 36.486L90.313 31.851C90.369 31.671 90.414 31.491 90.448 31.311C90.4834 31.1548 90.4775 30.9922 90.431 30.839C90.386 30.704 90.268 30.637 90.077 30.637C89.841 30.637 89.582 30.772 89.302 31.041C89.021 31.3 88.728 31.665 88.425 32.137C88.0887 32.6688 87.7848 33.2205 87.515 33.789C87.212 34.419 86.919 35.103 86.638 35.845C86.368 36.575 86.128 37.334 85.914 38.121L85.924 38.066L85.728 38.828Z" fill="white"/>
<path fill-rule="evenodd" clip-rule="evenodd" d="M79.43 36.224L79.36 36.486C79.2539 36.8667 79.1803 37.2558 79.14 37.649C79.106 38.009 79.162 38.312 79.308 38.559C79.533 38.896 79.915 39.065 80.455 39.065C80.7432 39.0629 81.028 39.002 81.2918 38.8859C81.5555 38.7699 81.7928 38.6011 81.989 38.39C82.225 38.132 82.421 37.772 82.579 37.312L82.999 36.082H82.679L82.427 36.84C82.224 37.424 82.027 37.812 81.837 38.003C81.646 38.193 81.46 38.289 81.281 38.289C81.134 38.289 81.039 38.244 80.994 38.154C80.9589 38.0395 80.9473 37.9191 80.96 37.8C80.983 37.654 81.016 37.514 81.062 37.379L83.236 29.895C82.8979 29.9759 82.5543 30.0323 82.208 30.064C81.859 30.098 81.483 30.12 81.078 30.131L80.834 31.033C80.8236 30.804 80.757 30.5811 80.64 30.384C80.5523 30.2305 80.4244 30.1039 80.27 30.0178C80.1157 29.9316 79.9407 29.8891 79.764 29.895C79.269 29.895 78.774 30.047 78.28 30.35C77.786 30.654 77.32 31.058 76.881 31.564C76.427 32.0806 76.0313 32.6457 75.701 33.249C75.3696 33.8538 75.104 34.4925 74.909 35.154C74.7252 35.7492 74.6288 36.368 74.623 36.991C74.623 37.621 74.769 38.126 75.061 38.508C75.353 38.879 75.803 39.064 76.409 39.064C76.836 39.064 77.247 38.941 77.639 38.694C78.044 38.446 78.427 38.036 78.786 37.464C79.009 37.119 79.223 36.706 79.43 36.224ZM77.977 37.935C77.719 38.171 77.488 38.289 77.286 38.289C77.117 38.289 76.988 38.205 76.898 38.036C76.82 37.856 76.78 37.559 76.78 37.143C76.78 36.547 76.848 35.935 76.983 35.306C77.117 34.676 77.297 34.07 77.522 33.486C77.758 32.901 78.016 32.379 78.297 31.918C78.578 31.458 78.859 31.092 79.14 30.822C79.432 30.552 79.707 30.418 79.966 30.418C80.236 30.418 80.426 30.553 80.539 30.822C80.651 31.066 80.679 31.393 80.626 31.802L80.128 33.644L80.185 33.351C80.005 34.07 79.792 34.733 79.545 35.34C79.297 35.946 79.039 36.469 78.769 36.907C78.499 37.345 78.235 37.688 77.977 37.935Z" fill="white"/>
<path d="M70.115 38.828H68.042L70.064 31.564C70.165 31.227 70.199 30.991 70.165 30.856C70.132 30.721 70.031 30.654 69.862 30.654C69.649 30.654 69.452 30.761 69.272 30.974C69.092 31.187 68.907 31.564 68.716 32.104L68.429 32.895H68.109L68.547 31.631C68.705 31.181 68.901 30.834 69.137 30.586C69.373 30.328 69.632 30.148 69.913 30.047C70.193 29.946 70.48 29.895 70.773 29.895C71.132 29.895 71.396 29.968 71.564 30.115C71.7427 30.2584 71.8629 30.4622 71.902 30.688C71.958 30.924 71.969 31.182 71.935 31.463C71.913 31.733 71.868 31.997 71.8 32.255L71.53 33.312L71.557 33.239L71.598 33.132C71.913 32.334 72.216 31.699 72.508 31.227C72.812 30.744 73.132 30.401 73.469 30.199C73.7992 29.9983 74.1786 29.8931 74.565 29.895C74.969 29.895 75.278 30.013 75.492 30.249C75.716 30.485 75.829 30.777 75.829 31.126C75.829 31.406 75.761 31.671 75.626 31.918C75.4952 32.1497 75.3103 32.3463 75.087 32.491C74.8642 32.6283 74.6066 32.6984 74.345 32.693C74.065 32.693 73.84 32.62 73.671 32.474C73.514 32.328 73.435 32.114 73.435 31.834C73.435 31.586 73.491 31.362 73.604 31.159C73.716 30.957 73.862 30.789 74.042 30.654C74.222 30.508 74.418 30.407 74.632 30.35C74.6083 30.327 74.5795 30.3098 74.548 30.3C74.5256 30.2924 74.5025 30.2874 74.479 30.285C74.4624 30.2834 74.4457 30.2827 74.429 30.283C74.183 30.283 73.929 30.373 73.671 30.553C73.413 30.721 73.143 30.997 72.862 31.379C72.582 31.761 72.295 32.266 72.002 32.895C71.6725 33.6387 71.3802 34.3983 71.126 35.171C70.999 35.544 70.871 35.947 70.743 36.378L70.115 38.828Z" fill="white"/>
<path fill-rule="evenodd" clip-rule="evenodd" d="M66.962 27.519C66.4 27.114 65.501 26.912 64.265 26.912C63.883 26.912 63.501 26.918 63.118 26.929C62.748 26.94 62.321 26.946 61.838 26.946H60.995C60.691 26.934 60.405 26.929 60.135 26.929C59.9103 26.9191 59.6856 26.9077 59.461 26.895L59.377 27.232C59.815 27.232 60.113 27.288 60.27 27.401C60.439 27.501 60.517 27.659 60.506 27.873C60.4833 28.1459 60.4382 28.4165 60.371 28.682L58.146 37.042C58.046 37.446 57.933 37.75 57.809 37.952C57.697 38.1452 57.5169 38.2896 57.304 38.357C57.09 38.424 56.792 38.469 56.41 38.491L56.343 38.828C56.533 38.818 56.764 38.812 57.033 38.812C57.303 38.8 57.59 38.795 57.893 38.795C58.7413 38.7692 59.5902 38.7749 60.438 38.812C60.899 38.822 61.321 38.829 61.703 38.829C62.433 38.829 63.124 38.755 63.776 38.609C64.377 38.4727 64.9518 38.2396 65.478 37.919C65.9488 37.6386 66.3472 37.2515 66.641 36.789C66.933 36.339 67.079 35.812 67.079 35.205C67.079 34.519 66.799 33.929 66.237 33.435C65.687 32.94 64.815 32.648 63.624 32.558C64.3671 32.4513 65.0891 32.2296 65.764 31.901C66.394 31.575 66.888 31.176 67.248 30.704C67.6104 30.2559 67.8068 29.6963 67.804 29.12C67.804 28.446 67.525 27.912 66.962 27.519ZM61.582 32.778L60.455 37.042C60.388 37.322 60.343 37.57 60.321 37.783C60.309 37.997 60.365 38.16 60.489 38.273C60.613 38.385 60.843 38.441 61.18 38.441C61.978 38.441 62.63 38.289 63.135 37.986C63.6298 37.695 64.024 37.26 64.265 36.739C64.512 36.199 64.635 35.592 64.635 34.919C64.635 34.502 64.562 34.137 64.416 33.823C64.2875 33.504 64.0563 33.2369 63.759 33.064C63.456 32.873 63.051 32.778 62.545 32.778H61.582ZM61.658 32.491H62.428C63.068 32.491 63.613 32.328 64.062 32.002C64.523 31.665 64.872 31.227 65.108 30.688C65.3538 30.154 65.48 29.5728 65.478 28.985C65.478 28.423 65.366 27.991 65.141 27.687C64.928 27.384 64.551 27.232 64.011 27.232C63.619 27.232 63.338 27.311 63.169 27.468C63.001 27.614 62.855 27.934 62.731 28.428L61.658 32.491Z" fill="white"/>
</g>
<defs>
<clipPath id="clip0_2060_38">
<rect width="174" height="39" fill="white" transform="translate(0 0.5)"/>
</clipPath>
</defs>
</svg>
